<svg id="Capa_1" enable-background="new 0 0 512 512" height="45pt" viewBox="0 0 512 512" width="45pt" xmlns="http://www.w3.org/2000/svg"><path fill="#0ac77599" d="m30 256c0-124.617 101.383-226 226-226 46.867 0 91.563 14.211 129.196 40.587h-29.074c-8.284 0-15 6.716-15 15s6.716 15 15 15h70.292c8.284 0 15-6.716 15-15v-70.292c0-8.284-6.716-15-15-15s-15 6.716-15 15v37.339c-44.427-34.135-98.504-52.634-155.414-52.634-68.38 0-132.667 26.629-181.02 74.98-48.351 48.353-74.98 112.64-74.98 181.02 0 44.921 11.871 89.182 34.33 127.998 2.78 4.806 7.818 7.49 12.997 7.49 2.55 0 5.134-.651 7.499-2.019 7.17-4.149 9.619-13.325 5.471-20.496-19.82-34.255-30.297-73.321-30.297-112.973z"/><path fill="#0ac77599" d="m477.67 128.002c-4.15-7.171-13.328-9.619-20.496-5.47-7.17 4.149-9.619 13.325-5.471 20.496 19.82 34.253 30.297 73.318 30.297 112.972 0 124.617-101.383 226-226 226-46.863 0-91.551-14.215-129.18-40.587h29.058c8.284 0 15-6.716 15-15s-6.716-15-15-15h-70.291c-8.284 0-15 6.716-15 15v70.292c0 8.284 6.716 15 15 15s15-6.716 15-15v-37.376c44.426 34.146 98.496 52.671 155.413 52.671 68.38 0 132.667-26.629 181.02-74.98 48.351-48.353 74.98-112.64 74.98-181.02 0-44.923-11.871-89.184-34.33-127.998z"/><path fill="#0ac77599" d="m384.413 217.203c1.03-3.843.491-7.937-1.499-11.382l-20-34.641c-4.142-7.174-13.315-9.632-20.49-5.49l-13.602 7.853c-11.053-9.795-23.856-17.194-37.821-21.856v-15.687c0-8.284-6.716-15-15-15h-40c-8.284 0-15 6.716-15 15v15.686c-13.965 4.662-26.769 12.061-37.822 21.856l-13.601-7.853c-7.174-4.144-16.349-1.685-20.49 5.49l-20 34.641c-4.142 7.174-1.684 16.348 5.49 20.49l13.598 7.851c-1.446 7.163-2.176 14.47-2.176 21.838s.729 14.676 2.176 21.838l-13.598 7.851c-7.174 4.142-9.632 13.316-5.49 20.49l20 34.641c4.142 7.175 13.315 9.633 20.49 5.49l13.601-7.853c11.053 9.796 23.856 17.194 37.822 21.856v15.688c0 8.284 6.716 15 15 15h40c8.284 0 15-6.716 15-15v-15.686c13.965-4.662 26.768-12.061 37.821-21.856l13.602 7.853c7.174 4.142 16.348 1.683 20.49-5.49l20-34.641c1.989-3.445 2.528-7.54 1.499-11.382-1.029-3.843-3.543-7.119-6.989-9.108l-13.599-7.852c1.446-7.162 2.175-14.469 2.175-21.838s-.729-14.676-2.175-21.838l13.599-7.852c3.445-1.988 5.96-5.265 6.989-9.107zm-128.413 78.797c-22.091 0-40-17.909-40-40s17.909-40 40-40 40 17.909 40 40-17.909 40-40 40z"/></svg>